<svg id="visual" viewBox="0 0 960 540" width="960" height="540" xmlns="http://www.w3.org/2000/svg" xmlns:xlink="http://www.w3.org/1999/xlink" version="1.1"><rect x="0" y="0" width="960" height="540" fill="#8E956C"></rect><defs><linearGradient id="grad1_0" x1="43.8%" y1="0%" x2="100%" y2="100%"><stop offset="14.444444444444446%" stop-color="#8e956c" stop-opacity="1"></stop><stop offset="85.55555555555554%" stop-color="#8e956c" stop-opacity="1"></stop></linearGradient></defs><defs><linearGradient id="grad2_0" x1="0%" y1="0%" x2="56.3%" y2="100%"><stop offset="14.444444444444446%" stop-color="#8e956c" stop-opacity="1"></stop><stop offset="85.55555555555554%" stop-color="#8e956c" stop-opacity="1"></stop></linearGradient></defs><g transform="translate(960, 0)"><path d="M0 486C-46.8 436.3 -93.5 386.5 -152.3 367.7C-211.1 348.9 -282 361.1 -335.9 335.9C-389.8 310.7 -426.8 248.2 -449 186C-471.2 123.8 -478.6 61.9 -486 0L0 0Z" fill="#FF5A1A"></path></g><g transform="translate(0, 540)"><path d="M0 -486C70.1 -478.7 140.2 -471.4 177.6 -428.7C215 -385.9 219.7 -307.7 267.3 -267.3C314.9 -226.9 405.4 -224.2 449 -186C492.6 -147.7 489.3 -73.9 486 0L0 0Z" fill="#FF5A1A"></path></g></svg>